<mxfile host="app.diagrams.net" agent="Mozilla/5.0 (Macintosh; Intel Mac OS X 10_15_7) AppleWebKit/605.1.15 (KHTML, like Gecko) Version/15.1 Safari/605.1.15" version="27.0.3">
  <diagram name="Страница — 1" id="18jyLLdRwkHqJXCR6IBC">
    <mxGraphModel dx="1577" dy="1087" grid="1" gridSize="10" guides="1" tooltips="1" connect="1" arrows="1" fold="1" page="1" pageScale="1" pageWidth="1654" pageHeight="1169" math="0" shadow="0">
      <root>
        <mxCell id="0" />
        <mxCell id="1" parent="0" />
        <mxCell id="BpmYU6h6UMYQ3IW-vo2k-101" value="" style="endArrow=none;html=1;rounded=0;exitX=1;exitY=0.5;exitDx=0;exitDy=0;entryX=0;entryY=0.5;entryDx=0;entryDy=0;" parent="1" source="BpmYU6h6UMYQ3IW-vo2k-74" edge="1" target="RjOl_HvcL7tpvTEkC-0D-84">
          <mxGeometry width="50" height="50" relative="1" as="geometry">
            <mxPoint x="390" y="540" as="sourcePoint" />
            <mxPoint x="1000" y="400" as="targetPoint" />
          </mxGeometry>
        </mxCell>
        <mxCell id="BpmYU6h6UMYQ3IW-vo2k-102" value="" style="endArrow=none;html=1;rounded=0;entryX=1;entryY=0.5;entryDx=0;entryDy=0;exitX=0;exitY=0.5;exitDx=0;exitDy=0;" parent="1" source="BpmYU6h6UMYQ3IW-vo2k-75" target="BpmYU6h6UMYQ3IW-vo2k-6" edge="1">
          <mxGeometry width="50" height="50" relative="1" as="geometry">
            <mxPoint x="380" y="960" as="sourcePoint" />
            <mxPoint x="430" y="910" as="targetPoint" />
          </mxGeometry>
        </mxCell>
        <mxCell id="BpmYU6h6UMYQ3IW-vo2k-103" value="" style="endArrow=none;html=1;rounded=0;entryX=0;entryY=0.5;entryDx=0;entryDy=0;exitX=1;exitY=0.5;exitDx=0;exitDy=0;" parent="1" source="BpmYU6h6UMYQ3IW-vo2k-71" target="RjOl_HvcL7tpvTEkC-0D-6" edge="1">
          <mxGeometry width="50" height="50" relative="1" as="geometry">
            <mxPoint x="690" y="660" as="sourcePoint" />
            <mxPoint x="740" y="610" as="targetPoint" />
          </mxGeometry>
        </mxCell>
        <mxCell id="BpmYU6h6UMYQ3IW-vo2k-104" value="" style="endArrow=none;html=1;rounded=0;entryX=1;entryY=0.5;entryDx=0;entryDy=0;exitX=0;exitY=0.5;exitDx=0;exitDy=0;" parent="1" source="BpmYU6h6UMYQ3IW-vo2k-6" target="BpmYU6h6UMYQ3IW-vo2k-70" edge="1">
          <mxGeometry width="50" height="50" relative="1" as="geometry">
            <mxPoint x="660" y="1030" as="sourcePoint" />
            <mxPoint x="710" y="980" as="targetPoint" />
          </mxGeometry>
        </mxCell>
        <mxCell id="BpmYU6h6UMYQ3IW-vo2k-105" value="" style="endArrow=none;html=1;rounded=0;entryX=1;entryY=0.5;entryDx=0;entryDy=0;exitX=0;exitY=0.5;exitDx=0;exitDy=0;" parent="1" source="RjOl_HvcL7tpvTEkC-0D-84" target="RjOl_HvcL7tpvTEkC-0D-41" edge="1">
          <mxGeometry width="50" height="50" relative="1" as="geometry">
            <mxPoint x="580" y="550" as="sourcePoint" />
            <mxPoint x="630" y="500" as="targetPoint" />
          </mxGeometry>
        </mxCell>
        <mxCell id="BpmYU6h6UMYQ3IW-vo2k-116" value="" style="endArrow=none;html=1;rounded=0;entryX=0;entryY=0.5;entryDx=0;entryDy=0;exitX=1;exitY=0.5;exitDx=0;exitDy=0;" parent="1" source="BpmYU6h6UMYQ3IW-vo2k-2" target="BpmYU6h6UMYQ3IW-vo2k-117" edge="1">
          <mxGeometry width="50" height="50" relative="1" as="geometry">
            <mxPoint x="840" y="820" as="sourcePoint" />
            <mxPoint x="350" y="330" as="targetPoint" />
          </mxGeometry>
        </mxCell>
        <mxCell id="BpmYU6h6UMYQ3IW-vo2k-124" value="" style="endArrow=none;html=1;rounded=0;exitX=1;exitY=0.5;exitDx=0;exitDy=0;entryX=0;entryY=0.5;entryDx=0;entryDy=0;" parent="1" source="BpmYU6h6UMYQ3IW-vo2k-123" edge="1" target="RjOl_HvcL7tpvTEkC-0D-14">
          <mxGeometry width="50" height="50" relative="1" as="geometry">
            <mxPoint x="1110" y="730" as="sourcePoint" />
            <mxPoint x="1400" y="147" as="targetPoint" />
          </mxGeometry>
        </mxCell>
        <mxCell id="BpmYU6h6UMYQ3IW-vo2k-125" value="" style="endArrow=none;html=1;rounded=0;entryX=0;entryY=0.5;entryDx=0;entryDy=0;exitX=1;exitY=0.5;exitDx=0;exitDy=0;" parent="1" target="RjOl_HvcL7tpvTEkC-0D-54" edge="1" source="RjOl_HvcL7tpvTEkC-0D-32">
          <mxGeometry width="50" height="50" relative="1" as="geometry">
            <mxPoint x="1270" y="205" as="sourcePoint" />
            <mxPoint x="1420" y="330" as="targetPoint" />
          </mxGeometry>
        </mxCell>
        <mxCell id="BpmYU6h6UMYQ3IW-vo2k-127" value="" style="endArrow=none;html=1;rounded=0;entryX=0;entryY=0.5;entryDx=0;entryDy=0;exitX=1;exitY=0.5;exitDx=0;exitDy=0;" parent="1" source="RjOl_HvcL7tpvTEkC-0D-73" target="RjOl_HvcL7tpvTEkC-0D-80" edge="1">
          <mxGeometry width="50" height="50" relative="1" as="geometry">
            <mxPoint x="1050" y="955" as="sourcePoint" />
            <mxPoint x="1060" y="890" as="targetPoint" />
          </mxGeometry>
        </mxCell>
        <mxCell id="BpmYU6h6UMYQ3IW-vo2k-128" value="" style="endArrow=none;html=1;rounded=0;entryX=0;entryY=0.5;entryDx=0;entryDy=0;exitX=1;exitY=0.5;exitDx=0;exitDy=0;" parent="1" source="RjOl_HvcL7tpvTEkC-0D-10" target="RjOl_HvcL7tpvTEkC-0D-56" edge="1">
          <mxGeometry width="50" height="50" relative="1" as="geometry">
            <mxPoint x="1300" y="690" as="sourcePoint" />
            <mxPoint x="1350" y="640" as="targetPoint" />
          </mxGeometry>
        </mxCell>
        <mxCell id="BpmYU6h6UMYQ3IW-vo2k-129" value="" style="endArrow=none;html=1;rounded=0;entryX=0;entryY=0.5;entryDx=0;entryDy=0;exitX=1;exitY=0.5;exitDx=0;exitDy=0;" parent="1" target="RjOl_HvcL7tpvTEkC-0D-12" edge="1" source="RjOl_HvcL7tpvTEkC-0D-18">
          <mxGeometry width="50" height="50" relative="1" as="geometry">
            <mxPoint x="170" y="895" as="sourcePoint" />
            <mxPoint x="1070" y="930" as="targetPoint" />
          </mxGeometry>
        </mxCell>
        <mxCell id="BpmYU6h6UMYQ3IW-vo2k-130" value="" style="endArrow=none;html=1;rounded=0;entryX=0;entryY=0.5;entryDx=0;entryDy=0;exitX=1;exitY=0.5;exitDx=0;exitDy=0;" parent="1" source="RjOl_HvcL7tpvTEkC-0D-18" target="OnHAx9CsmUBT5KDHOfiG-1" edge="1">
          <mxGeometry width="50" height="50" relative="1" as="geometry">
            <mxPoint x="270" y="860" as="sourcePoint" />
            <mxPoint x="60" y="540" as="targetPoint" />
          </mxGeometry>
        </mxCell>
        <mxCell id="BpmYU6h6UMYQ3IW-vo2k-131" value="" style="endArrow=none;html=1;rounded=0;exitX=1;exitY=0.5;exitDx=0;exitDy=0;entryX=0;entryY=0.5;entryDx=0;entryDy=0;" parent="1" source="RjOl_HvcL7tpvTEkC-0D-18" target="o_sbOUQr-DrO1cY8X4BI-1" edge="1">
          <mxGeometry width="50" height="50" relative="1" as="geometry">
            <mxPoint x="160" y="840" as="sourcePoint" />
            <mxPoint x="210" y="790" as="targetPoint" />
          </mxGeometry>
        </mxCell>
        <mxCell id="BpmYU6h6UMYQ3IW-vo2k-135" value="" style="endArrow=none;html=1;rounded=0;entryX=0;entryY=0.5;entryDx=0;entryDy=0;exitX=1;exitY=0.5;exitDx=0;exitDy=0;" parent="1" target="RjOl_HvcL7tpvTEkC-0D-3" edge="1" source="RjOl_HvcL7tpvTEkC-0D-48">
          <mxGeometry width="50" height="50" relative="1" as="geometry">
            <mxPoint x="720" y="613" as="sourcePoint" />
            <mxPoint x="260" y="320" as="targetPoint" />
          </mxGeometry>
        </mxCell>
        <mxCell id="BpmYU6h6UMYQ3IW-vo2k-136" value="" style="endArrow=none;html=1;rounded=0;exitX=1;exitY=0.5;exitDx=0;exitDy=0;entryX=0;entryY=0.5;entryDx=0;entryDy=0;" parent="1" source="BpmYU6h6UMYQ3IW-vo2k-93" target="RjOl_HvcL7tpvTEkC-0D-10" edge="1">
          <mxGeometry width="50" height="50" relative="1" as="geometry">
            <mxPoint x="760" y="630" as="sourcePoint" />
            <mxPoint x="1120" y="775" as="targetPoint" />
          </mxGeometry>
        </mxCell>
        <mxCell id="iDWe4_mteZYGyNHXFgZl-1" value="" style="group" parent="1" vertex="1" connectable="0">
          <mxGeometry x="940" y="450" width="240" height="240" as="geometry" />
        </mxCell>
        <mxCell id="RjOl_HvcL7tpvTEkC-0D-1" value="Круиз" style="swimlane;fontStyle=0;childLayout=stackLayout;horizontal=1;startSize=30;horizontalStack=0;resizeParent=1;resizeParentMax=0;resizeLast=0;collapsible=1;marginBottom=0;whiteSpace=wrap;html=1;" parent="iDWe4_mteZYGyNHXFgZl-1" vertex="1">
          <mxGeometry x="30" width="180" height="240" as="geometry">
            <mxRectangle x="150" y="220" width="70" height="30" as="alternateBounds" />
          </mxGeometry>
        </mxCell>
        <mxCell id="RjOl_HvcL7tpvTEkC-0D-84" value="круиз_id" style="text;strokeColor=none;fillColor=none;align=left;verticalAlign=middle;spacingLeft=4;spacingRight=4;overflow=hidden;points=[[0,0.5],[1,0.5]];portConstraint=eastwest;rotatable=0;whiteSpace=wrap;html=1;" parent="RjOl_HvcL7tpvTEkC-0D-1" vertex="1">
          <mxGeometry y="30" width="180" height="30" as="geometry" />
        </mxCell>
        <mxCell id="RjOl_HvcL7tpvTEkC-0D-29" value="круиз_дата" style="text;strokeColor=none;fillColor=none;align=left;verticalAlign=middle;spacingLeft=4;spacingRight=4;overflow=hidden;points=[[0,0.5],[1,0.5]];portConstraint=eastwest;rotatable=0;whiteSpace=wrap;html=1;" parent="RjOl_HvcL7tpvTEkC-0D-1" vertex="1">
          <mxGeometry y="60" width="180" height="30" as="geometry" />
        </mxCell>
        <mxCell id="RjOl_HvcL7tpvTEkC-0D-36" value="круиз_название" style="text;strokeColor=none;fillColor=none;align=left;verticalAlign=middle;spacingLeft=4;spacingRight=4;overflow=hidden;points=[[0,0.5],[1,0.5]];portConstraint=eastwest;rotatable=0;whiteSpace=wrap;html=1;" parent="RjOl_HvcL7tpvTEkC-0D-1" vertex="1">
          <mxGeometry y="90" width="180" height="30" as="geometry" />
        </mxCell>
        <mxCell id="RjOl_HvcL7tpvTEkC-0D-169" value="круиз_наполненость" style="text;strokeColor=none;fillColor=none;align=left;verticalAlign=middle;spacingLeft=4;spacingRight=4;overflow=hidden;points=[[0,0.5],[1,0.5]];portConstraint=eastwest;rotatable=0;whiteSpace=wrap;html=1;" parent="RjOl_HvcL7tpvTEkC-0D-1" vertex="1">
          <mxGeometry y="120" width="180" height="30" as="geometry" />
        </mxCell>
        <mxCell id="RjOl_HvcL7tpvTEkC-0D-3" value="круиз_тип_круиза_id" style="text;strokeColor=none;fillColor=none;align=left;verticalAlign=middle;spacingLeft=4;spacingRight=4;overflow=hidden;points=[[0,0.5],[1,0.5]];portConstraint=eastwest;rotatable=0;whiteSpace=wrap;html=1;" parent="RjOl_HvcL7tpvTEkC-0D-1" vertex="1">
          <mxGeometry y="150" width="180" height="30" as="geometry" />
        </mxCell>
        <mxCell id="BpmYU6h6UMYQ3IW-vo2k-93" value="судно_id" style="text;strokeColor=none;fillColor=none;align=left;verticalAlign=middle;spacingLeft=4;spacingRight=4;overflow=hidden;points=[[0,0.5],[1,0.5]];portConstraint=eastwest;rotatable=0;whiteSpace=wrap;html=1;" parent="RjOl_HvcL7tpvTEkC-0D-1" vertex="1">
          <mxGeometry y="180" width="180" height="30" as="geometry" />
        </mxCell>
        <mxCell id="BpmYU6h6UMYQ3IW-vo2k-117" value="туроператор_&lt;span style=&quot;text-align: center;&quot;&gt;id&lt;/span&gt;" style="text;strokeColor=none;fillColor=none;align=left;verticalAlign=middle;spacingLeft=4;spacingRight=4;overflow=hidden;points=[[0,0.5],[1,0.5]];portConstraint=eastwest;rotatable=0;whiteSpace=wrap;html=1;" parent="RjOl_HvcL7tpvTEkC-0D-1" vertex="1">
          <mxGeometry y="210" width="180" height="30" as="geometry" />
        </mxCell>
        <mxCell id="BpmYU6h6UMYQ3IW-vo2k-155" value="&lt;div style=&quot;text-align: center;&quot;&gt;&lt;span style=&quot;color: rgb(4, 12, 40); font-family: &amp;quot;Google Sans&amp;quot;, &amp;quot;Helvetica Neue&amp;quot;, sans-serif; font-size: 20px; text-align: start;&quot;&gt;∞&lt;/span&gt;&lt;/div&gt;" style="text;html=1;align=center;verticalAlign=middle;whiteSpace=wrap;rounded=0;" parent="iDWe4_mteZYGyNHXFgZl-1" vertex="1">
          <mxGeometry x="200" y="150" width="40" height="80" as="geometry" />
        </mxCell>
        <mxCell id="BpmYU6h6UMYQ3IW-vo2k-186" value="&lt;div style=&quot;text-align: center;&quot;&gt;&lt;span style=&quot;caret-color: rgb(4, 12, 40); color: rgb(4, 12, 40); font-family: &amp;quot;Google Sans&amp;quot;, &amp;quot;Helvetica Neue&amp;quot;, sans-serif; font-size: 20px; text-align: start;&quot;&gt;∞&lt;/span&gt;&lt;br&gt;&lt;/div&gt;" style="text;html=1;align=center;verticalAlign=middle;whiteSpace=wrap;rounded=0;" parent="iDWe4_mteZYGyNHXFgZl-1" vertex="1">
          <mxGeometry y="179" width="40" height="61" as="geometry" />
        </mxCell>
        <mxCell id="BpmYU6h6UMYQ3IW-vo2k-187" value="&lt;div style=&quot;text-align: center;&quot;&gt;&lt;br&gt;&lt;/div&gt;" style="text;html=1;align=center;verticalAlign=middle;whiteSpace=wrap;rounded=0;" parent="iDWe4_mteZYGyNHXFgZl-1" vertex="1">
          <mxGeometry y="70" width="40" height="30" as="geometry" />
        </mxCell>
        <mxCell id="Yp89eehkHs7d0zlfbpnQ-21" value="&lt;span style=&quot;caret-color: rgb(4, 12, 40); color: rgb(4, 12, 40); font-family: &amp;quot;Google Sans&amp;quot;, &amp;quot;Helvetica Neue&amp;quot;, sans-serif; font-size: 20px; font-style: normal; font-variant-caps: normal; font-weight: normal; letter-spacing: normal; text-align: start; text-indent: 0px; text-transform: none; white-space: normal; word-spacing: 0px; -webkit-text-stroke-width: 0px; text-decoration: none; float: none; display: inline !important;&quot;&gt;∞&lt;/span&gt;" style="text;whiteSpace=wrap;html=1;" parent="iDWe4_mteZYGyNHXFgZl-1" vertex="1">
          <mxGeometry x="10" y="134" width="20" height="50" as="geometry" />
        </mxCell>
        <mxCell id="BpmYU6h6UMYQ3IW-vo2k-190" value="&lt;b&gt;&lt;font style=&quot;font-size: 14px;&quot;&gt;1&lt;/font&gt;&lt;/b&gt;" style="text;html=1;align=center;verticalAlign=middle;whiteSpace=wrap;rounded=0;" parent="iDWe4_mteZYGyNHXFgZl-1" vertex="1">
          <mxGeometry y="50" width="30" height="40" as="geometry" />
        </mxCell>
        <mxCell id="Yp89eehkHs7d0zlfbpnQ-14" value="&lt;b&gt;&lt;font style=&quot;font-size: 14px;&quot;&gt;1&lt;/font&gt;&lt;/b&gt;" style="text;html=1;align=center;verticalAlign=middle;whiteSpace=wrap;rounded=0;" parent="iDWe4_mteZYGyNHXFgZl-1" vertex="1">
          <mxGeometry x="-10" width="30" height="40" as="geometry" />
        </mxCell>
        <mxCell id="iDWe4_mteZYGyNHXFgZl-5" value="" style="group" parent="1" vertex="1" connectable="0">
          <mxGeometry x="430" y="60" width="210" height="190" as="geometry" />
        </mxCell>
        <mxCell id="RjOl_HvcL7tpvTEkC-0D-5" value="Клиент" style="swimlane;fontStyle=0;childLayout=stackLayout;horizontal=1;startSize=30;horizontalStack=0;resizeParent=1;resizeParentMax=0;resizeLast=0;collapsible=1;marginBottom=0;whiteSpace=wrap;html=1;" parent="iDWe4_mteZYGyNHXFgZl-5" vertex="1">
          <mxGeometry x="30" y="10" width="150" height="180" as="geometry" />
        </mxCell>
        <mxCell id="RjOl_HvcL7tpvTEkC-0D-6" value="клиент_id" style="text;strokeColor=none;fillColor=none;align=left;verticalAlign=middle;spacingLeft=4;spacingRight=4;overflow=hidden;points=[[0,0.5],[1,0.5]];portConstraint=eastwest;rotatable=0;whiteSpace=wrap;html=1;" parent="RjOl_HvcL7tpvTEkC-0D-5" vertex="1">
          <mxGeometry y="30" width="150" height="30" as="geometry" />
        </mxCell>
        <mxCell id="RjOl_HvcL7tpvTEkC-0D-7" value="клиент_ФИО" style="text;strokeColor=none;fillColor=none;align=left;verticalAlign=middle;spacingLeft=4;spacingRight=4;overflow=hidden;points=[[0,0.5],[1,0.5]];portConstraint=eastwest;rotatable=0;whiteSpace=wrap;html=1;" parent="RjOl_HvcL7tpvTEkC-0D-5" vertex="1">
          <mxGeometry y="60" width="150" height="30" as="geometry" />
        </mxCell>
        <mxCell id="RjOl_HvcL7tpvTEkC-0D-8" value="клиент_история" style="text;strokeColor=none;fillColor=none;align=left;verticalAlign=middle;spacingLeft=4;spacingRight=4;overflow=hidden;points=[[0,0.5],[1,0.5]];portConstraint=eastwest;rotatable=0;whiteSpace=wrap;html=1;" parent="RjOl_HvcL7tpvTEkC-0D-5" vertex="1">
          <mxGeometry y="90" width="150" height="30" as="geometry" />
        </mxCell>
        <mxCell id="RjOl_HvcL7tpvTEkC-0D-53" value="клиент_личные_данные" style="text;strokeColor=none;fillColor=none;align=left;verticalAlign=middle;spacingLeft=4;spacingRight=4;overflow=hidden;points=[[0,0.5],[1,0.5]];portConstraint=eastwest;rotatable=0;whiteSpace=wrap;html=1;" parent="RjOl_HvcL7tpvTEkC-0D-5" vertex="1">
          <mxGeometry y="120" width="150" height="30" as="geometry" />
        </mxCell>
        <mxCell id="RjOl_HvcL7tpvTEkC-0D-109" value="номер_каюты" style="text;strokeColor=none;fillColor=none;align=left;verticalAlign=middle;spacingLeft=4;spacingRight=4;overflow=hidden;points=[[0,0.5],[1,0.5]];portConstraint=eastwest;rotatable=0;whiteSpace=wrap;html=1;" parent="RjOl_HvcL7tpvTEkC-0D-5" vertex="1">
          <mxGeometry y="150" width="150" height="30" as="geometry" />
        </mxCell>
        <mxCell id="BpmYU6h6UMYQ3IW-vo2k-142" value="&lt;b&gt;&lt;font style=&quot;font-size: 14px;&quot;&gt;1&lt;/font&gt;&lt;/b&gt;" style="text;html=1;align=center;verticalAlign=middle;whiteSpace=wrap;rounded=0;" parent="iDWe4_mteZYGyNHXFgZl-5" vertex="1">
          <mxGeometry x="174" y="30" width="30" height="30" as="geometry" />
        </mxCell>
        <mxCell id="BpmYU6h6UMYQ3IW-vo2k-143" value="&lt;b&gt;&lt;font style=&quot;font-size: 14px;&quot;&gt;1&lt;/font&gt;&lt;/b&gt;" style="text;html=1;align=center;verticalAlign=middle;whiteSpace=wrap;rounded=0;" parent="iDWe4_mteZYGyNHXFgZl-5" vertex="1">
          <mxGeometry y="30" width="40" height="30" as="geometry" />
        </mxCell>
        <mxCell id="iDWe4_mteZYGyNHXFgZl-6" value="" style="group" parent="1" vertex="1" connectable="0">
          <mxGeometry x="723.5" y="70" width="207" height="120" as="geometry" />
        </mxCell>
        <mxCell id="BpmYU6h6UMYQ3IW-vo2k-43" value="Клиент_круиз_каюта" style="swimlane;fontStyle=0;childLayout=stackLayout;horizontal=1;startSize=30;horizontalStack=0;resizeParent=1;resizeParentMax=0;resizeLast=0;collapsible=1;marginBottom=0;whiteSpace=wrap;html=1;" parent="iDWe4_mteZYGyNHXFgZl-6" vertex="1">
          <mxGeometry x="27.459183673469383" width="147.8571428571428" height="150" as="geometry" />
        </mxCell>
        <mxCell id="BpmYU6h6UMYQ3IW-vo2k-44" value="&lt;span style=&quot;text-align: center;&quot;&gt;клиент_круиз_каюта_id&lt;/span&gt;" style="text;strokeColor=none;fillColor=none;align=left;verticalAlign=middle;spacingLeft=4;spacingRight=4;overflow=hidden;points=[[0,0.5],[1,0.5]];portConstraint=eastwest;rotatable=0;whiteSpace=wrap;html=1;" parent="BpmYU6h6UMYQ3IW-vo2k-43" vertex="1">
          <mxGeometry y="30" width="147.8571428571428" height="30" as="geometry" />
        </mxCell>
        <mxCell id="BpmYU6h6UMYQ3IW-vo2k-123" value="каюта_id" style="text;strokeColor=none;fillColor=none;align=left;verticalAlign=middle;spacingLeft=4;spacingRight=4;overflow=hidden;points=[[0,0.5],[1,0.5]];portConstraint=eastwest;rotatable=0;whiteSpace=wrap;html=1;" parent="BpmYU6h6UMYQ3IW-vo2k-43" vertex="1">
          <mxGeometry y="60" width="147.8571428571428" height="30" as="geometry" />
        </mxCell>
        <mxCell id="BpmYU6h6UMYQ3IW-vo2k-122" value="клиент_id" style="text;strokeColor=none;fillColor=none;align=left;verticalAlign=middle;spacingLeft=4;spacingRight=4;overflow=hidden;points=[[0,0.5],[1,0.5]];portConstraint=eastwest;rotatable=0;whiteSpace=wrap;html=1;" parent="BpmYU6h6UMYQ3IW-vo2k-43" vertex="1">
          <mxGeometry y="90" width="147.8571428571428" height="30" as="geometry" />
        </mxCell>
        <mxCell id="RjOl_HvcL7tpvTEkC-0D-41" value="круиз_id" style="text;strokeColor=none;fillColor=none;align=left;verticalAlign=middle;spacingLeft=4;spacingRight=4;overflow=hidden;points=[[0,0.5],[1,0.5]];portConstraint=eastwest;rotatable=0;whiteSpace=wrap;html=1;" parent="BpmYU6h6UMYQ3IW-vo2k-43" vertex="1">
          <mxGeometry y="120" width="147.8571428571428" height="30" as="geometry" />
        </mxCell>
        <mxCell id="BpmYU6h6UMYQ3IW-vo2k-164" value="&lt;div style=&quot;text-align: center;&quot;&gt;&lt;span style=&quot;color: rgb(4, 12, 40); font-family: &amp;quot;Google Sans&amp;quot;, &amp;quot;Helvetica Neue&amp;quot;, sans-serif; font-size: 20px; text-align: start;&quot;&gt;∞&lt;/span&gt;&lt;/div&gt;" style="text;html=1;align=center;verticalAlign=middle;whiteSpace=wrap;rounded=0;" parent="iDWe4_mteZYGyNHXFgZl-6" vertex="1">
          <mxGeometry x="168.98" y="30" width="38.02" height="70" as="geometry" />
        </mxCell>
        <mxCell id="BpmYU6h6UMYQ3IW-vo2k-165" value="&lt;div style=&quot;text-align: center;&quot;&gt;&lt;span style=&quot;color: rgb(4, 12, 40); font-family: &amp;quot;Google Sans&amp;quot;, &amp;quot;Helvetica Neue&amp;quot;, sans-serif; font-size: 20px; text-align: start;&quot;&gt;∞&lt;/span&gt;&lt;/div&gt;" style="text;html=1;align=center;verticalAlign=middle;whiteSpace=wrap;rounded=0;" parent="iDWe4_mteZYGyNHXFgZl-6" vertex="1">
          <mxGeometry y="100" width="38.02" height="30" as="geometry" />
        </mxCell>
        <mxCell id="iDWe4_mteZYGyNHXFgZl-7" value="" style="group" parent="1" vertex="1" connectable="0">
          <mxGeometry x="1120" y="160" width="176" height="90" as="geometry" />
        </mxCell>
        <mxCell id="RjOl_HvcL7tpvTEkC-0D-31" value="Тип каюты" style="swimlane;fontStyle=0;childLayout=stackLayout;horizontal=1;startSize=30;horizontalStack=0;resizeParent=1;resizeParentMax=0;resizeLast=0;collapsible=1;marginBottom=0;whiteSpace=wrap;html=1;" parent="iDWe4_mteZYGyNHXFgZl-7" vertex="1">
          <mxGeometry width="150" height="90" as="geometry" />
        </mxCell>
        <mxCell id="RjOl_HvcL7tpvTEkC-0D-32" value="тип_каюты_id" style="text;strokeColor=none;fillColor=none;align=left;verticalAlign=middle;spacingLeft=4;spacingRight=4;overflow=hidden;points=[[0,0.5],[1,0.5]];portConstraint=eastwest;rotatable=0;whiteSpace=wrap;html=1;" parent="RjOl_HvcL7tpvTEkC-0D-31" vertex="1">
          <mxGeometry y="30" width="150" height="30" as="geometry" />
        </mxCell>
        <mxCell id="RjOl_HvcL7tpvTEkC-0D-33" value="тип_каюты_уровень" style="text;strokeColor=none;fillColor=none;align=left;verticalAlign=middle;spacingLeft=4;spacingRight=4;overflow=hidden;points=[[0,0.5],[1,0.5]];portConstraint=eastwest;rotatable=0;whiteSpace=wrap;html=1;" parent="RjOl_HvcL7tpvTEkC-0D-31" vertex="1">
          <mxGeometry y="60" width="150" height="30" as="geometry" />
        </mxCell>
        <mxCell id="BpmYU6h6UMYQ3IW-vo2k-163" value="&lt;b&gt;&lt;font style=&quot;font-size: 14px;&quot;&gt;1&lt;/font&gt;&lt;/b&gt;" style="text;html=1;align=center;verticalAlign=middle;whiteSpace=wrap;rounded=0;" parent="iDWe4_mteZYGyNHXFgZl-7" vertex="1">
          <mxGeometry x="150" width="26" height="50" as="geometry" />
        </mxCell>
        <mxCell id="iDWe4_mteZYGyNHXFgZl-8" value="" style="group" parent="1" vertex="1" connectable="0">
          <mxGeometry x="1380" y="100" width="204" height="140" as="geometry" />
        </mxCell>
        <mxCell id="RjOl_HvcL7tpvTEkC-0D-13" value="Каюта" style="swimlane;fontStyle=0;childLayout=stackLayout;horizontal=1;startSize=30;horizontalStack=0;resizeParent=1;resizeParentMax=0;resizeLast=0;collapsible=1;marginBottom=0;whiteSpace=wrap;html=1;" parent="iDWe4_mteZYGyNHXFgZl-8" vertex="1">
          <mxGeometry x="18" width="186" height="120" as="geometry" />
        </mxCell>
        <mxCell id="RjOl_HvcL7tpvTEkC-0D-14" value="каюта_id" style="text;strokeColor=none;fillColor=none;align=left;verticalAlign=middle;spacingLeft=4;spacingRight=4;overflow=hidden;points=[[0,0.5],[1,0.5]];portConstraint=eastwest;rotatable=0;whiteSpace=wrap;html=1;" parent="RjOl_HvcL7tpvTEkC-0D-13" vertex="1">
          <mxGeometry y="30" width="186" height="30" as="geometry" />
        </mxCell>
        <mxCell id="RjOl_HvcL7tpvTEkC-0D-54" value="каюта_тип_каюты_id" style="text;strokeColor=none;fillColor=none;align=left;verticalAlign=middle;spacingLeft=4;spacingRight=4;overflow=hidden;points=[[0,0.5],[1,0.5]];portConstraint=eastwest;rotatable=0;whiteSpace=wrap;html=1;" parent="RjOl_HvcL7tpvTEkC-0D-13" vertex="1">
          <mxGeometry y="60" width="186" height="30" as="geometry" />
        </mxCell>
        <mxCell id="RjOl_HvcL7tpvTEkC-0D-56" value="судно_id" style="text;strokeColor=none;fillColor=none;align=left;verticalAlign=middle;spacingLeft=4;spacingRight=4;overflow=hidden;points=[[0,0.5],[1,0.5]];portConstraint=eastwest;rotatable=0;whiteSpace=wrap;html=1;" parent="RjOl_HvcL7tpvTEkC-0D-13" vertex="1">
          <mxGeometry y="90" width="186" height="30" as="geometry" />
        </mxCell>
        <mxCell id="BpmYU6h6UMYQ3IW-vo2k-160" value="&lt;div style=&quot;text-align: center;&quot;&gt;&lt;span style=&quot;color: rgb(4, 12, 40); font-family: &amp;quot;Google Sans&amp;quot;, &amp;quot;Helvetica Neue&amp;quot;, sans-serif; font-size: 20px; text-align: start;&quot;&gt;∞&lt;/span&gt;&lt;/div&gt;" style="text;html=1;align=center;verticalAlign=middle;whiteSpace=wrap;rounded=0;" parent="iDWe4_mteZYGyNHXFgZl-8" vertex="1">
          <mxGeometry x="-20" y="112" width="56" height="28" as="geometry" />
        </mxCell>
        <mxCell id="BpmYU6h6UMYQ3IW-vo2k-161" value="&lt;div style=&quot;text-align: center;&quot;&gt;&lt;span style=&quot;color: rgb(4, 12, 40); font-family: &amp;quot;Google Sans&amp;quot;, &amp;quot;Helvetica Neue&amp;quot;, sans-serif; font-size: 20px; text-align: start;&quot;&gt;∞&lt;/span&gt;&lt;/div&gt;" style="text;html=1;align=center;verticalAlign=middle;whiteSpace=wrap;rounded=0;" parent="iDWe4_mteZYGyNHXFgZl-8" vertex="1">
          <mxGeometry x="-10" y="75" width="36" height="15" as="geometry" />
        </mxCell>
        <mxCell id="BpmYU6h6UMYQ3IW-vo2k-162" value="&lt;b&gt;&lt;font style=&quot;font-size: 14px;&quot;&gt;1&lt;/font&gt;&lt;/b&gt;" style="text;html=1;align=center;verticalAlign=middle;whiteSpace=wrap;rounded=0;" parent="iDWe4_mteZYGyNHXFgZl-8" vertex="1">
          <mxGeometry x="-8" width="26" height="50" as="geometry" />
        </mxCell>
        <mxCell id="iDWe4_mteZYGyNHXFgZl-9" value="" style="group" parent="1" vertex="1" connectable="0">
          <mxGeometry x="1185" y="730" width="195" height="250" as="geometry" />
        </mxCell>
        <mxCell id="RjOl_HvcL7tpvTEkC-0D-9" value="Судно" style="swimlane;fontStyle=0;childLayout=stackLayout;horizontal=1;startSize=30;horizontalStack=0;resizeParent=1;resizeParentMax=0;resizeLast=0;collapsible=1;marginBottom=0;whiteSpace=wrap;html=1;" parent="iDWe4_mteZYGyNHXFgZl-9" vertex="1">
          <mxGeometry x="25" width="154" height="210" as="geometry" />
        </mxCell>
        <mxCell id="RjOl_HvcL7tpvTEkC-0D-10" value="судно_id" style="text;strokeColor=none;fillColor=none;align=left;verticalAlign=middle;spacingLeft=4;spacingRight=4;overflow=hidden;points=[[0,0.5],[1,0.5]];portConstraint=eastwest;rotatable=0;whiteSpace=wrap;html=1;" parent="RjOl_HvcL7tpvTEkC-0D-9" vertex="1">
          <mxGeometry y="30" width="154" height="30" as="geometry" />
        </mxCell>
        <mxCell id="RjOl_HvcL7tpvTEkC-0D-11" value="судно_вместительность" style="text;strokeColor=none;fillColor=none;align=left;verticalAlign=middle;spacingLeft=4;spacingRight=4;overflow=hidden;points=[[0,0.5],[1,0.5]];portConstraint=eastwest;rotatable=0;whiteSpace=wrap;html=1;" parent="RjOl_HvcL7tpvTEkC-0D-9" vertex="1">
          <mxGeometry y="60" width="154" height="30" as="geometry" />
        </mxCell>
        <mxCell id="RjOl_HvcL7tpvTEkC-0D-42" value="судно_название" style="text;strokeColor=none;fillColor=none;align=left;verticalAlign=middle;spacingLeft=4;spacingRight=4;overflow=hidden;points=[[0,0.5],[1,0.5]];portConstraint=eastwest;rotatable=0;whiteSpace=wrap;html=1;" parent="RjOl_HvcL7tpvTEkC-0D-9" vertex="1">
          <mxGeometry y="90" width="154" height="30" as="geometry" />
        </mxCell>
        <mxCell id="RjOl_HvcL7tpvTEkC-0D-153" value="судно_количество_кают" style="text;strokeColor=none;fillColor=none;align=left;verticalAlign=middle;spacingLeft=4;spacingRight=4;overflow=hidden;points=[[0,0.5],[1,0.5]];portConstraint=eastwest;rotatable=0;whiteSpace=wrap;html=1;" parent="RjOl_HvcL7tpvTEkC-0D-9" vertex="1">
          <mxGeometry y="120" width="154" height="30" as="geometry" />
        </mxCell>
        <mxCell id="RjOl_HvcL7tpvTEkC-0D-12" value="турфирма_&lt;span style=&quot;caret-color: rgba(0, 0, 0, 0); color: rgba(0, 0, 0, 0); font-family: monospace; font-size: 0px; white-space: nowrap;&quot;&gt;%3CmxGraphModel%3E%3Croot%3E%3CmxCell%20id%3D%220%22%2F%3E%3CmxCell%20id%3D%221%22%20parent%3D%220%22%2F%3E%3CmxCell%20id%3D%222%22%20value%3D%22%D0%9A%D0%B0%D1%8E%D1%82%D0%B0%22%20style%3D%22swimlane%3BfontStyle%3D0%3BchildLayout%3DstackLayout%3Bhorizontal%3D1%3BstartSize%3D30%3BhorizontalStack%3D0%3BresizeParent%3D1%3BresizeParentMax%3D0%3BresizeLast%3D0%3Bcollapsible%3D1%3BmarginBottom%3D0%3BwhiteSpace%3Dwrap%3Bhtml%3D1%3B%22%20vertex%3D%221%22%20parent%3D%221%22%3E%3CmxGeometry%20x%3D%22150%22%20y%3D%22320%22%20width%3D%22140%22%20height%3D%22120%22%20as%3D%22geometry%22%2F%3E%3C%2FmxCell%3E%3CmxCell%20id%3D%223%22%20value%3D%22%D0%BA%D0%B0%D1%8E%D1%82%D0%B0_id%22%20style%3D%22text%3BstrokeColor%3Dnone%3BfillColor%3Dnone%3Balign%3Dleft%3BverticalAlign%3Dmiddle%3BspacingLeft%3D4%3BspacingRight%3D4%3Boverflow%3Dhidden%3Bpoints%3D%5B%5B0%2C0.5%5D%2C%5B1%2C0.5%5D%5D%3BportConstraint%3Deastwest%3Brotatable%3D0%3BwhiteSpace%3Dwrap%3Bhtml%3D1%3B%22%20vertex%3D%221%22%20parent%3D%222%22%3E%3CmxGeometry%20y%3D%2230%22%20width%3D%22140%22%20height%3D%2230%22%20as%3D%22geometry%22%2F%3E%3C%2FmxCell%3E%3CmxCell%20id%3D%224%22%20value%3D%22%D0%BA%D0%B0%D1%8E%D1%82%D0%B0_%D1%82%D0%B8%D0%BF%22%20style%3D%22text%3BstrokeColor%3Dnone%3BfillColor%3Dnone%3Balign%3Dleft%3BverticalAlign%3Dmiddle%3BspacingLeft%3D4%3BspacingRight%3D4%3Boverflow%3Dhidden%3Bpoints%3D%5B%5B0%2C0.5%5D%2C%5B1%2C0.5%5D%5D%3BportConstraint%3Deastwest%3Brotatable%3D0%3BwhiteSpace%3Dwrap%3Bhtml%3D1%3B%22%20vertex%3D%221%22%20parent%3D%222%22%3E%3CmxGeometry%20y%3D%2260%22%20width%3D%22140%22%20height%3D%2230%22%20as%3D%22geometry%22%2F%3E%3C%2FmxCell%3E%3CmxCell%20id%3D%225%22%20value%3D%22Item%203%22%20style%3D%22text%3BstrokeColor%3Dnone%3BfillColor%3Dnone%3Balign%3Dleft%3BverticalAlign%3Dmiddle%3BspacingLeft%3D4%3BspacingRight%3D4%3Boverflow%3Dhidden%3Bpoints%3D%5B%5B0%2C0.5%5D%2C%5B1%2C0.5%5D%5D%3BportConstraint%3Deastwest%3Brotatable%3D0%3BwhiteSpace%3Dwrap%3Bhtml%3D1%3B%22%20vertex%3D%221%22%20parent%3D%222%22%3E%3CmxGeometry%20y%3D%2290%22%20width%3D%22140%22%20height%3D%2230%22%20as%3D%22geometry%22%2F%3E%3C%2FmxCell%3E%3C%2Froot%3E%3C%2FmxGraphModel%3E&lt;/span&gt;&lt;span style=&quot;caret-color: rgba(0, 0, 0, 0); color: rgba(0, 0, 0, 0); font-family: monospace; font-size: 0px; white-space: nowrap;&quot;&gt;%3CmxGraphModel%3E%3Croot%3E%3CmxCell%20id%3D%220%22%2F%3E%3CmxCell%20id%3D%221%22%20parent%3D%220%22%2F%3E%3CmxCell%20id%3D%222%22%20value%3D%22%D0%9A%D0%B0%D1%8E%D1%82%D0%B0%22%20style%3D%22swimlane%3BfontStyle%3D0%3BchildLayout%3DstackLayout%3Bhorizontal%3D1%3BstartSize%3D30%3BhorizontalStack%3D0%3BresizeParent%3D1%3BresizeParentMax%3D0%3BresizeLast%3D0%3Bcollapsible%3D1%3BmarginBottom%3D0%3BwhiteSpace%3Dwrap%3Bhtml%3D1%3B%22%20vertex%3D%221%22%20parent%3D%221%22%3E%3CmxGeometry%20x%3D%22150%22%20y%3D%22320%22%20width%3D%22140%22%20height%3D%22120%22%20as%3D%22geometry%22%2F%3E%3C%2FmxCell%3E%3CmxCell%20id%3D%223%22%20value%3D%22%D0%BA%D0%B0%D1%8E%D1%82%D0%B0_id%22%20style%3D%22text%3BstrokeColor%3Dnone%3BfillColor%3Dnone%3Balign%3Dleft%3BverticalAlign%3Dmiddle%3BspacingLeft%3D4%3BspacingRight%3D4%3Boverflow%3Dhidden%3Bpoints%3D%5B%5B0%2C0.5%5D%2C%5B1%2C0.5%5D%5D%3BportConstraint%3Deastwest%3Brotatable%3D0%3BwhiteSpace%3Dwrap%3Bhtml%3D1%3B%22%20vertex%3D%221%22%20parent%3D%222%22%3E%3CmxGeometry%20y%3D%2230%22%20width%3D%22140%22%20height%3D%2230%22%20as%3D%22geometry%22%2F%3E%3C%2FmxCell%3E%3CmxCell%20id%3D%224%22%20value%3D%22%D0%BA%D0%B0%D1%8E%D1%82%D0%B0_%D1%82%D0%B8%D0%BF%22%20style%3D%22text%3BstrokeColor%3Dnone%3BfillColor%3Dnone%3Balign%3Dleft%3BverticalAlign%3Dmiddle%3BspacingLeft%3D4%3BspacingRight%3D4%3Boverflow%3Dhidden%3Bpoints%3D%5B%5B0%2C0.5%5D%2C%5B1%2C0.5%5D%5D%3BportConstraint%3Deastwest%3Brotatable%3D0%3BwhiteSpace%3Dwrap%3Bhtml%3D1%3B%22%20vertex%3D%221%22%20parent%3D%222%22%3E%3CmxGeometry%20y%3D%2260%22%20width%3D%22140%22%20height%3D%2230%22%20as%3D%22geometry%22%2F%3E%3C%2FmxCell%3E%3CmxCell%20id%3D%225%22%20value%3D%22Item%203%22%20style%3D%22text%3BstrokeColor%3Dnone%3BfillColor%3Dnone%3Balign%3Dleft%3BverticalAlign%3Dmiddle%3BspacingLeft%3D4%3BspacingRight%3D4%3Boverflow%3Dhidden%3Bpoints%3D%5B%5B0%2C0.5%5D%2C%5B1%2C0.5%5D%5D%3BportConstraint%3Deastwest%3Brotatable%3D0%3BwhiteSpace%3Dwrap%3Bhtml%3D1%3B%22%20vertex%3D%221%22%20parent%3D%222%22%3E%3CmxGeometry%20y%3D%2290%22%20width%3D%22140%22%20height%3D%2230%22%20as%3D%22geometry%22%2F%3E%3C%2FmxCell%3E%3C%2Froot%3E%3C%2FmxGraphModel%3E&lt;/span&gt;id" style="text;strokeColor=none;fillColor=none;align=left;verticalAlign=middle;spacingLeft=4;spacingRight=4;overflow=hidden;points=[[0,0.5],[1,0.5]];portConstraint=eastwest;rotatable=0;whiteSpace=wrap;html=1;" parent="RjOl_HvcL7tpvTEkC-0D-9" vertex="1">
          <mxGeometry y="150" width="154" height="30" as="geometry" />
        </mxCell>
        <mxCell id="RjOl_HvcL7tpvTEkC-0D-80" value="судно_тип_судна_id" style="text;strokeColor=none;fillColor=none;align=left;verticalAlign=middle;spacingLeft=4;spacingRight=4;overflow=hidden;points=[[0,0.5],[1,0.5]];portConstraint=eastwest;rotatable=0;whiteSpace=wrap;html=1;" parent="RjOl_HvcL7tpvTEkC-0D-9" vertex="1">
          <mxGeometry y="180" width="154" height="30" as="geometry" />
        </mxCell>
        <mxCell id="BpmYU6h6UMYQ3IW-vo2k-159" value="&lt;b&gt;&lt;font style=&quot;font-size: 14px;&quot;&gt;1&lt;/font&gt;&lt;/b&gt;" style="text;html=1;align=center;verticalAlign=middle;whiteSpace=wrap;rounded=0;" parent="iDWe4_mteZYGyNHXFgZl-9" vertex="1">
          <mxGeometry x="179" width="16" height="30" as="geometry" />
        </mxCell>
        <mxCell id="BpmYU6h6UMYQ3IW-vo2k-146" value="&lt;div style=&quot;text-align: center;&quot;&gt;&lt;span style=&quot;color: rgb(4, 12, 40); font-family: &amp;quot;Google Sans&amp;quot;, &amp;quot;Helvetica Neue&amp;quot;, sans-serif; font-size: 20px; text-align: start;&quot;&gt;∞&lt;/span&gt;&lt;/div&gt;" style="text;html=1;align=center;verticalAlign=middle;whiteSpace=wrap;rounded=0;" parent="iDWe4_mteZYGyNHXFgZl-9" vertex="1">
          <mxGeometry x="-15" y="190" width="55" height="46" as="geometry" />
        </mxCell>
        <mxCell id="BpmYU6h6UMYQ3IW-vo2k-145" value="&lt;div style=&quot;text-align: center;&quot;&gt;&lt;span style=&quot;color: rgb(4, 12, 40); font-family: &amp;quot;Google Sans&amp;quot;, &amp;quot;Helvetica Neue&amp;quot;, sans-serif; font-size: 20px; text-align: start;&quot;&gt;∞&lt;/span&gt;&lt;/div&gt;" style="text;html=1;align=center;verticalAlign=middle;whiteSpace=wrap;rounded=0;" parent="iDWe4_mteZYGyNHXFgZl-9" vertex="1">
          <mxGeometry x="-10" y="160" width="40" height="26" as="geometry" />
        </mxCell>
        <mxCell id="BpmYU6h6UMYQ3IW-vo2k-156" value="&lt;b&gt;&lt;font style=&quot;font-size: 14px;&quot;&gt;1&lt;/font&gt;&lt;/b&gt;" style="text;html=1;align=center;verticalAlign=middle;whiteSpace=wrap;rounded=0;" parent="iDWe4_mteZYGyNHXFgZl-9" vertex="1">
          <mxGeometry x="-2.5" y="30" width="30" height="30" as="geometry" />
        </mxCell>
        <mxCell id="iDWe4_mteZYGyNHXFgZl-10" value="" style="group" parent="1" vertex="1" connectable="0">
          <mxGeometry x="40" y="220" width="204" height="120" as="geometry" />
        </mxCell>
        <mxCell id="BpmYU6h6UMYQ3IW-vo2k-47" value="Клиент_турагенство" style="swimlane;fontStyle=0;childLayout=stackLayout;horizontal=1;startSize=30;horizontalStack=0;resizeParent=1;resizeParentMax=0;resizeLast=0;collapsible=1;marginBottom=0;whiteSpace=wrap;html=1;" parent="iDWe4_mteZYGyNHXFgZl-10" vertex="1">
          <mxGeometry x="34" width="140" height="120" as="geometry" />
        </mxCell>
        <mxCell id="BpmYU6h6UMYQ3IW-vo2k-48" value="&lt;span style=&quot;text-align: center;&quot;&gt;клиент_турагенство_id&lt;/span&gt;" style="text;strokeColor=none;fillColor=none;align=left;verticalAlign=middle;spacingLeft=4;spacingRight=4;overflow=hidden;points=[[0,0.5],[1,0.5]];portConstraint=eastwest;rotatable=0;whiteSpace=wrap;html=1;" parent="BpmYU6h6UMYQ3IW-vo2k-47" vertex="1">
          <mxGeometry y="30" width="140" height="30" as="geometry" />
        </mxCell>
        <mxCell id="BpmYU6h6UMYQ3IW-vo2k-71" value="клиент_id" style="text;strokeColor=none;fillColor=none;align=left;verticalAlign=middle;spacingLeft=4;spacingRight=4;overflow=hidden;points=[[0,0.5],[1,0.5]];portConstraint=eastwest;rotatable=0;whiteSpace=wrap;html=1;" parent="BpmYU6h6UMYQ3IW-vo2k-47" vertex="1">
          <mxGeometry y="60" width="140" height="30" as="geometry" />
        </mxCell>
        <mxCell id="BpmYU6h6UMYQ3IW-vo2k-70" value="&lt;span style=&quot;text-align: center;&quot;&gt;турагенство_id&lt;/span&gt;" style="text;strokeColor=none;fillColor=none;align=left;verticalAlign=middle;spacingLeft=4;spacingRight=4;overflow=hidden;points=[[0,0.5],[1,0.5]];portConstraint=eastwest;rotatable=0;whiteSpace=wrap;html=1;" parent="BpmYU6h6UMYQ3IW-vo2k-47" vertex="1">
          <mxGeometry y="90" width="140" height="30" as="geometry" />
        </mxCell>
        <mxCell id="BpmYU6h6UMYQ3IW-vo2k-139" value="&lt;div style=&quot;text-align: center;&quot;&gt;&lt;span style=&quot;color: rgb(4, 12, 40); font-family: &amp;quot;Google Sans&amp;quot;, &amp;quot;Helvetica Neue&amp;quot;, sans-serif; font-size: 20px; text-align: start;&quot;&gt;∞&lt;/span&gt;&lt;/div&gt;" style="text;html=1;align=center;verticalAlign=middle;whiteSpace=wrap;rounded=0;" parent="iDWe4_mteZYGyNHXFgZl-10" vertex="1">
          <mxGeometry x="164" y="86" width="40" height="26" as="geometry" />
        </mxCell>
        <mxCell id="BpmYU6h6UMYQ3IW-vo2k-140" value="&lt;div style=&quot;text-align: center;&quot;&gt;&lt;span style=&quot;color: rgb(4, 12, 40); font-family: &amp;quot;Google Sans&amp;quot;, &amp;quot;Helvetica Neue&amp;quot;, sans-serif; font-size: 20px; text-align: start;&quot;&gt;∞&lt;/span&gt;&lt;/div&gt;" style="text;html=1;align=center;verticalAlign=middle;whiteSpace=wrap;rounded=0;" parent="iDWe4_mteZYGyNHXFgZl-10" vertex="1">
          <mxGeometry x="167" y="40" width="34" height="26" as="geometry" />
        </mxCell>
        <mxCell id="iDWe4_mteZYGyNHXFgZl-12" value="" style="group" parent="1" vertex="1" connectable="0">
          <mxGeometry x="870" y="940" width="194" height="90" as="geometry" />
        </mxCell>
        <mxCell id="RjOl_HvcL7tpvTEkC-0D-120" value="&lt;b&gt;&lt;font style=&quot;font-size: 14px;&quot;&gt;1&lt;/font&gt;&lt;/b&gt;" style="text;html=1;align=center;verticalAlign=middle;whiteSpace=wrap;rounded=0;" parent="iDWe4_mteZYGyNHXFgZl-12" vertex="1">
          <mxGeometry x="164" y="10" width="30" height="30" as="geometry" />
        </mxCell>
        <mxCell id="iDWe4_mteZYGyNHXFgZl-13" value="" style="group" parent="1" vertex="1" connectable="0">
          <mxGeometry x="50" y="830" width="170" height="260" as="geometry" />
        </mxCell>
        <mxCell id="BpmYU6h6UMYQ3IW-vo2k-147" value="&lt;b&gt;&lt;font style=&quot;font-size: 14px;&quot;&gt;1&lt;/font&gt;&lt;/b&gt;" style="text;html=1;align=center;verticalAlign=middle;whiteSpace=wrap;rounded=0;" parent="iDWe4_mteZYGyNHXFgZl-13" vertex="1">
          <mxGeometry x="110" y="20" width="60" height="75" as="geometry" />
        </mxCell>
        <mxCell id="BpmYU6h6UMYQ3IW-vo2k-150" value="&lt;b&gt;&lt;font style=&quot;font-size: 14px;&quot;&gt;1&lt;/font&gt;&lt;/b&gt;" style="text;html=1;align=center;verticalAlign=middle;whiteSpace=wrap;rounded=0;" parent="iDWe4_mteZYGyNHXFgZl-13" vertex="1">
          <mxGeometry x="130" y="70" width="20" height="25" as="geometry" />
        </mxCell>
        <mxCell id="BpmYU6h6UMYQ3IW-vo2k-151" value="&lt;b&gt;&lt;font style=&quot;font-size: 14px;&quot;&gt;1&lt;/font&gt;&lt;/b&gt;" style="text;html=1;align=center;verticalAlign=middle;whiteSpace=wrap;rounded=0;" parent="iDWe4_mteZYGyNHXFgZl-13" vertex="1">
          <mxGeometry x="120" y="20" width="20" height="25" as="geometry" />
        </mxCell>
        <mxCell id="RjOl_HvcL7tpvTEkC-0D-17" value="Турфирма" style="swimlane;fontStyle=0;childLayout=stackLayout;horizontal=1;startSize=30;horizontalStack=0;resizeParent=1;resizeParentMax=0;resizeLast=0;collapsible=1;marginBottom=0;whiteSpace=wrap;html=1;" parent="iDWe4_mteZYGyNHXFgZl-13" vertex="1">
          <mxGeometry x="-20" y="25" width="140" height="150" as="geometry" />
        </mxCell>
        <mxCell id="RjOl_HvcL7tpvTEkC-0D-18" value="турфирма_id" style="text;strokeColor=none;fillColor=none;align=left;verticalAlign=middle;spacingLeft=4;spacingRight=4;overflow=hidden;points=[[0,0.5],[1,0.5]];portConstraint=eastwest;rotatable=0;whiteSpace=wrap;html=1;" parent="RjOl_HvcL7tpvTEkC-0D-17" vertex="1">
          <mxGeometry y="30" width="140" height="30" as="geometry" />
        </mxCell>
        <mxCell id="RjOl_HvcL7tpvTEkC-0D-19" value="турфирма_название" style="text;strokeColor=none;fillColor=none;align=left;verticalAlign=middle;spacingLeft=4;spacingRight=4;overflow=hidden;points=[[0,0.5],[1,0.5]];portConstraint=eastwest;rotatable=0;whiteSpace=wrap;html=1;" parent="RjOl_HvcL7tpvTEkC-0D-17" vertex="1">
          <mxGeometry y="60" width="140" height="30" as="geometry" />
        </mxCell>
        <mxCell id="RjOl_HvcL7tpvTEkC-0D-106" value="турфирма_программы" style="text;strokeColor=none;fillColor=none;align=left;verticalAlign=middle;spacingLeft=4;spacingRight=4;overflow=hidden;points=[[0,0.5],[1,0.5]];portConstraint=eastwest;rotatable=0;whiteSpace=wrap;html=1;" parent="RjOl_HvcL7tpvTEkC-0D-17" vertex="1">
          <mxGeometry y="90" width="140" height="30" as="geometry" />
        </mxCell>
        <mxCell id="RjOl_HvcL7tpvTEkC-0D-82" value="база_клиентов" style="text;strokeColor=none;fillColor=none;align=left;verticalAlign=middle;spacingLeft=4;spacingRight=4;overflow=hidden;points=[[0,0.5],[1,0.5]];portConstraint=eastwest;rotatable=0;whiteSpace=wrap;html=1;" parent="RjOl_HvcL7tpvTEkC-0D-17" vertex="1">
          <mxGeometry y="120" width="140" height="30" as="geometry" />
        </mxCell>
        <mxCell id="iDWe4_mteZYGyNHXFgZl-14" value="" style="group" parent="1" vertex="1" connectable="0">
          <mxGeometry x="647" y="420" width="165" height="130" as="geometry" />
        </mxCell>
        <mxCell id="BpmYU6h6UMYQ3IW-vo2k-55" value="Круиз_турагенство" style="swimlane;fontStyle=0;childLayout=stackLayout;horizontal=1;startSize=30;horizontalStack=0;resizeParent=1;resizeParentMax=0;resizeLast=0;collapsible=1;marginBottom=0;whiteSpace=wrap;html=1;" parent="iDWe4_mteZYGyNHXFgZl-14" vertex="1">
          <mxGeometry width="140" height="120" as="geometry" />
        </mxCell>
        <mxCell id="BpmYU6h6UMYQ3IW-vo2k-56" value="&lt;span style=&quot;text-align: center;&quot;&gt;круиз_турагенство_id&lt;/span&gt;" style="text;strokeColor=none;fillColor=none;align=left;verticalAlign=middle;spacingLeft=4;spacingRight=4;overflow=hidden;points=[[0,0.5],[1,0.5]];portConstraint=eastwest;rotatable=0;whiteSpace=wrap;html=1;" parent="BpmYU6h6UMYQ3IW-vo2k-55" vertex="1">
          <mxGeometry y="30" width="140" height="30" as="geometry" />
        </mxCell>
        <mxCell id="BpmYU6h6UMYQ3IW-vo2k-74" value="круиз_id" style="text;strokeColor=none;fillColor=none;align=left;verticalAlign=middle;spacingLeft=4;spacingRight=4;overflow=hidden;points=[[0,0.5],[1,0.5]];portConstraint=eastwest;rotatable=0;whiteSpace=wrap;html=1;" parent="BpmYU6h6UMYQ3IW-vo2k-55" vertex="1">
          <mxGeometry y="60" width="140" height="30" as="geometry" />
        </mxCell>
        <mxCell id="BpmYU6h6UMYQ3IW-vo2k-75" value="&lt;span style=&quot;text-align: center;&quot;&gt;турагенство_id&lt;/span&gt;" style="text;strokeColor=none;fillColor=none;align=left;verticalAlign=middle;spacingLeft=4;spacingRight=4;overflow=hidden;points=[[0,0.5],[1,0.5]];portConstraint=eastwest;rotatable=0;whiteSpace=wrap;html=1;" parent="BpmYU6h6UMYQ3IW-vo2k-55" vertex="1">
          <mxGeometry y="90" width="140" height="30" as="geometry" />
        </mxCell>
        <mxCell id="BpmYU6h6UMYQ3IW-vo2k-189" value="&lt;div style=&quot;text-align: center;&quot;&gt;&lt;span style=&quot;color: rgb(4, 12, 40); font-family: &amp;quot;Google Sans&amp;quot;, &amp;quot;Helvetica Neue&amp;quot;, sans-serif; font-size: 20px; text-align: start;&quot;&gt;∞&lt;/span&gt;&lt;/div&gt;" style="text;html=1;align=center;verticalAlign=middle;whiteSpace=wrap;rounded=0;" parent="iDWe4_mteZYGyNHXFgZl-14" vertex="1">
          <mxGeometry x="140" y="70" width="25" height="20" as="geometry" />
        </mxCell>
        <mxCell id="iDWe4_mteZYGyNHXFgZl-16" value="" style="group" parent="1" vertex="1" connectable="0">
          <mxGeometry x="590" y="737" width="197" height="120" as="geometry" />
        </mxCell>
        <mxCell id="BpmYU6h6UMYQ3IW-vo2k-153" value="&lt;div style=&quot;text-align: center;&quot;&gt;&lt;span style=&quot;color: rgb(4, 12, 40); font-family: &amp;quot;Google Sans&amp;quot;, &amp;quot;Helvetica Neue&amp;quot;, sans-serif; font-size: 20px; text-align: start;&quot;&gt;∞&lt;/span&gt;&lt;/div&gt;" style="text;html=1;align=center;verticalAlign=middle;whiteSpace=wrap;rounded=0;" parent="iDWe4_mteZYGyNHXFgZl-16" vertex="1">
          <mxGeometry y="48" width="40" height="26" as="geometry" />
        </mxCell>
        <mxCell id="iDWe4_mteZYGyNHXFgZl-15" value="" style="group" parent="iDWe4_mteZYGyNHXFgZl-16" vertex="1" connectable="0">
          <mxGeometry x="30" width="167" height="120" as="geometry" />
        </mxCell>
        <mxCell id="BpmYU6h6UMYQ3IW-vo2k-1" value="Туроператор" style="swimlane;fontStyle=0;childLayout=stackLayout;horizontal=1;startSize=30;horizontalStack=0;resizeParent=1;resizeParentMax=0;resizeLast=0;collapsible=1;marginBottom=0;whiteSpace=wrap;html=1;" parent="iDWe4_mteZYGyNHXFgZl-15" vertex="1">
          <mxGeometry width="140" height="120" as="geometry" />
        </mxCell>
        <mxCell id="BpmYU6h6UMYQ3IW-vo2k-2" value="туроператор_&lt;span style=&quot;text-align: center;&quot;&gt;id&lt;/span&gt;" style="text;strokeColor=none;fillColor=none;align=left;verticalAlign=middle;spacingLeft=4;spacingRight=4;overflow=hidden;points=[[0,0.5],[1,0.5]];portConstraint=eastwest;rotatable=0;whiteSpace=wrap;html=1;" parent="BpmYU6h6UMYQ3IW-vo2k-1" vertex="1">
          <mxGeometry y="30" width="140" height="30" as="geometry" />
        </mxCell>
        <mxCell id="OnHAx9CsmUBT5KDHOfiG-1" value="турфирма_id" style="text;strokeColor=none;fillColor=none;align=left;verticalAlign=middle;spacingLeft=4;spacingRight=4;overflow=hidden;points=[[0,0.5],[1,0.5]];portConstraint=eastwest;rotatable=0;whiteSpace=wrap;html=1;" parent="BpmYU6h6UMYQ3IW-vo2k-1" vertex="1">
          <mxGeometry y="60" width="140" height="30" as="geometry" />
        </mxCell>
        <mxCell id="BpmYU6h6UMYQ3IW-vo2k-3" value="туроператор_название" style="text;strokeColor=none;fillColor=none;align=left;verticalAlign=middle;spacingLeft=4;spacingRight=4;overflow=hidden;points=[[0,0.5],[1,0.5]];portConstraint=eastwest;rotatable=0;whiteSpace=wrap;html=1;" parent="BpmYU6h6UMYQ3IW-vo2k-1" vertex="1">
          <mxGeometry y="90" width="140" height="30" as="geometry" />
        </mxCell>
        <mxCell id="BpmYU6h6UMYQ3IW-vo2k-185" value="&lt;b&gt;&lt;font style=&quot;font-size: 14px;&quot;&gt;1&lt;/font&gt;&lt;/b&gt;" style="text;html=1;align=center;verticalAlign=middle;whiteSpace=wrap;rounded=0;" parent="iDWe4_mteZYGyNHXFgZl-15" vertex="1">
          <mxGeometry x="137" y="3" width="30" height="37" as="geometry" />
        </mxCell>
        <mxCell id="iDWe4_mteZYGyNHXFgZl-17" value="" style="group" parent="1" vertex="1" connectable="0">
          <mxGeometry x="560" y="590" width="190" height="90" as="geometry" />
        </mxCell>
        <mxCell id="RjOl_HvcL7tpvTEkC-0D-47" value="Тип круиза" style="swimlane;fontStyle=0;childLayout=stackLayout;horizontal=1;startSize=30;horizontalStack=0;resizeParent=1;resizeParentMax=0;resizeLast=0;collapsible=1;marginBottom=0;whiteSpace=wrap;html=1;" parent="iDWe4_mteZYGyNHXFgZl-17" vertex="1">
          <mxGeometry y="-20" width="170" height="90" as="geometry" />
        </mxCell>
        <mxCell id="RjOl_HvcL7tpvTEkC-0D-48" value="тип_круиза_id" style="text;strokeColor=none;fillColor=none;align=left;verticalAlign=middle;spacingLeft=4;spacingRight=4;overflow=hidden;points=[[0,0.5],[1,0.5]];portConstraint=eastwest;rotatable=0;whiteSpace=wrap;html=1;" parent="RjOl_HvcL7tpvTEkC-0D-47" vertex="1">
          <mxGeometry y="30" width="170" height="30" as="geometry" />
        </mxCell>
        <mxCell id="RjOl_HvcL7tpvTEkC-0D-49" value="тип_круиза_тип" style="text;strokeColor=none;fillColor=none;align=left;verticalAlign=middle;spacingLeft=4;spacingRight=4;overflow=hidden;points=[[0,0.5],[1,0.5]];portConstraint=eastwest;rotatable=0;whiteSpace=wrap;html=1;" parent="RjOl_HvcL7tpvTEkC-0D-47" vertex="1">
          <mxGeometry y="60" width="170" height="30" as="geometry" />
        </mxCell>
        <mxCell id="BpmYU6h6UMYQ3IW-vo2k-188" value="&lt;b&gt;&lt;font style=&quot;font-size: 14px;&quot;&gt;1&lt;/font&gt;&lt;/b&gt;" style="text;html=1;align=center;verticalAlign=middle;whiteSpace=wrap;rounded=0;" parent="iDWe4_mteZYGyNHXFgZl-17" vertex="1">
          <mxGeometry x="170" y="-20" width="20" height="70" as="geometry" />
        </mxCell>
        <mxCell id="BpmYU6h6UMYQ3IW-vo2k-121" value="" style="endArrow=none;html=1;rounded=0;entryX=0;entryY=0.5;entryDx=0;entryDy=0;exitX=1;exitY=0.5;exitDx=0;exitDy=0;" parent="1" target="BpmYU6h6UMYQ3IW-vo2k-122" edge="1" source="RjOl_HvcL7tpvTEkC-0D-6">
          <mxGeometry width="50" height="50" relative="1" as="geometry">
            <mxPoint x="609" y="89" as="sourcePoint" />
            <mxPoint x="813" y="450" as="targetPoint" />
          </mxGeometry>
        </mxCell>
        <mxCell id="BpmYU6h6UMYQ3IW-vo2k-149" value="&lt;div style=&quot;text-align: center;&quot;&gt;&lt;span style=&quot;color: rgb(4, 12, 40); font-family: &amp;quot;Google Sans&amp;quot;, &amp;quot;Helvetica Neue&amp;quot;, sans-serif; font-size: 20px; text-align: start;&quot;&gt;∞&lt;/span&gt;&lt;/div&gt;" style="text;html=1;align=center;verticalAlign=middle;whiteSpace=wrap;rounded=0;" parent="1" vertex="1">
          <mxGeometry x="620" y="470" width="35" height="70" as="geometry" />
        </mxCell>
        <mxCell id="iDWe4_mteZYGyNHXFgZl-11" value="" style="group" parent="1" vertex="1" connectable="0">
          <mxGeometry x="340" y="480" width="190" height="120" as="geometry" />
        </mxCell>
        <mxCell id="BpmYU6h6UMYQ3IW-vo2k-5" value="Турагенство" style="swimlane;fontStyle=0;childLayout=stackLayout;horizontal=1;startSize=30;horizontalStack=0;resizeParent=1;resizeParentMax=0;resizeLast=0;collapsible=1;marginBottom=0;whiteSpace=wrap;html=1;" parent="iDWe4_mteZYGyNHXFgZl-11" vertex="1">
          <mxGeometry x="20" width="140" height="120" as="geometry" />
        </mxCell>
        <mxCell id="BpmYU6h6UMYQ3IW-vo2k-6" value="&lt;span style=&quot;text-align: center;&quot;&gt;турагенство_id&lt;/span&gt;" style="text;strokeColor=none;fillColor=none;align=left;verticalAlign=middle;spacingLeft=4;spacingRight=4;overflow=hidden;points=[[0,0.5],[1,0.5]];portConstraint=eastwest;rotatable=0;whiteSpace=wrap;html=1;" parent="BpmYU6h6UMYQ3IW-vo2k-5" vertex="1">
          <mxGeometry y="30" width="140" height="30" as="geometry" />
        </mxCell>
        <mxCell id="o_sbOUQr-DrO1cY8X4BI-1" value="турфирма_id" style="text;strokeColor=none;fillColor=none;align=left;verticalAlign=middle;spacingLeft=4;spacingRight=4;overflow=hidden;points=[[0,0.5],[1,0.5]];portConstraint=eastwest;rotatable=0;whiteSpace=wrap;html=1;" parent="BpmYU6h6UMYQ3IW-vo2k-5" vertex="1">
          <mxGeometry y="60" width="140" height="30" as="geometry" />
        </mxCell>
        <mxCell id="BpmYU6h6UMYQ3IW-vo2k-7" value="&lt;span style=&quot;text-align: center;&quot;&gt;турагенство_название&lt;/span&gt;" style="text;strokeColor=none;fillColor=none;align=left;verticalAlign=middle;spacingLeft=4;spacingRight=4;overflow=hidden;points=[[0,0.5],[1,0.5]];portConstraint=eastwest;rotatable=0;whiteSpace=wrap;html=1;" parent="BpmYU6h6UMYQ3IW-vo2k-5" vertex="1">
          <mxGeometry y="90" width="140" height="30" as="geometry" />
        </mxCell>
        <mxCell id="BpmYU6h6UMYQ3IW-vo2k-148" value="&lt;b&gt;&lt;font style=&quot;font-size: 14px;&quot;&gt;1&lt;/font&gt;&lt;/b&gt;" style="text;html=1;align=center;verticalAlign=middle;whiteSpace=wrap;rounded=0;" parent="iDWe4_mteZYGyNHXFgZl-11" vertex="1">
          <mxGeometry x="160" y="10" width="20" height="40" as="geometry" />
        </mxCell>
        <mxCell id="BpmYU6h6UMYQ3IW-vo2k-154" value="&lt;div style=&quot;text-align: center;&quot;&gt;&lt;span style=&quot;color: rgb(4, 12, 40); font-family: &amp;quot;Google Sans&amp;quot;, &amp;quot;Helvetica Neue&amp;quot;, sans-serif; font-size: 20px; text-align: start;&quot;&gt;∞&lt;/span&gt;&lt;/div&gt;" style="text;html=1;align=center;verticalAlign=middle;whiteSpace=wrap;rounded=0;" parent="iDWe4_mteZYGyNHXFgZl-11" vertex="1">
          <mxGeometry x="-10" y="60" width="40" height="26" as="geometry" />
        </mxCell>
        <mxCell id="BpmYU6h6UMYQ3IW-vo2k-141" value="&lt;b&gt;&lt;font style=&quot;font-size: 14px;&quot;&gt;1&lt;/font&gt;&lt;/b&gt;" style="text;html=1;align=center;verticalAlign=middle;whiteSpace=wrap;rounded=0;" parent="iDWe4_mteZYGyNHXFgZl-11" vertex="1">
          <mxGeometry x="-10" y="5" width="40" height="20" as="geometry" />
        </mxCell>
        <mxCell id="Yp89eehkHs7d0zlfbpnQ-13" value="&lt;div style=&quot;text-align: center;&quot;&gt;&lt;span style=&quot;color: rgb(4, 12, 40); font-family: &amp;quot;Google Sans&amp;quot;, &amp;quot;Helvetica Neue&amp;quot;, sans-serif; font-size: 20px; text-align: start;&quot;&gt;∞&lt;/span&gt;&lt;/div&gt;" style="text;html=1;align=center;verticalAlign=middle;whiteSpace=wrap;rounded=0;" parent="1" vertex="1">
          <mxGeometry x="880" y="160" width="70" height="80" as="geometry" />
        </mxCell>
        <mxCell id="RjOl_HvcL7tpvTEkC-0D-74" value="Тип судна" style="swimlane;fontStyle=0;childLayout=stackLayout;horizontal=1;startSize=30;horizontalStack=0;resizeParent=1;resizeParentMax=0;resizeLast=0;collapsible=1;marginBottom=0;whiteSpace=wrap;html=1;" parent="1" vertex="1">
          <mxGeometry x="870" y="930" width="170" height="90" as="geometry" />
        </mxCell>
        <mxCell id="RjOl_HvcL7tpvTEkC-0D-73" value="тип_судна_id" style="text;strokeColor=none;fillColor=none;align=left;verticalAlign=middle;spacingLeft=4;spacingRight=4;overflow=hidden;points=[[0,0.5],[1,0.5]];portConstraint=eastwest;rotatable=0;whiteSpace=wrap;html=1;" parent="RjOl_HvcL7tpvTEkC-0D-74" vertex="1">
          <mxGeometry y="30" width="170" height="30" as="geometry" />
        </mxCell>
        <mxCell id="RjOl_HvcL7tpvTEkC-0D-75" value="тип_судна_классификация" style="text;strokeColor=none;fillColor=none;align=left;verticalAlign=middle;spacingLeft=4;spacingRight=4;overflow=hidden;points=[[0,0.5],[1,0.5]];portConstraint=eastwest;rotatable=0;whiteSpace=wrap;html=1;" parent="RjOl_HvcL7tpvTEkC-0D-74" vertex="1">
          <mxGeometry y="60" width="170" height="30" as="geometry" />
        </mxCell>
      </root>
    </mxGraphModel>
  </diagram>
</mxfile>
